<mxfile host="app.diagrams.net" modified="2024-04-14T20:21:05.825Z" agent="Mozilla/5.0 (Windows NT 10.0; Win64; x64; rv:124.0) Gecko/20100101 Firefox/124.0" etag="J1TN83UDzM4Z8JOukaaV" version="24.2.5" type="device">
  <diagram name="1 oldal" id="ytOArCDgZSQxLObLL5pK">
    <mxGraphModel dx="1050" dy="530" grid="1" gridSize="10" guides="1" tooltips="1" connect="1" arrows="1" fold="1" page="1" pageScale="1" pageWidth="827" pageHeight="1169" math="0" shadow="0">
      <root>
        <mxCell id="0" />
        <mxCell id="1" parent="0" />
        <mxCell id="eeCppcq6T9XGfD-gnMKO-2" value="Kurzus" style="rounded=1;whiteSpace=wrap;html=1;" parent="1" vertex="1">
          <mxGeometry x="430" y="270" width="120" height="40" as="geometry" />
        </mxCell>
        <mxCell id="eeCppcq6T9XGfD-gnMKO-3" value="Terem" style="rounded=1;whiteSpace=wrap;html=1;" parent="1" vertex="1">
          <mxGeometry x="353.5" y="360" width="120" height="40" as="geometry" />
        </mxCell>
        <mxCell id="eeCppcq6T9XGfD-gnMKO-4" value="Vizsga" style="rounded=1;whiteSpace=wrap;html=1;" parent="1" vertex="1">
          <mxGeometry x="280" y="270" width="120" height="40" as="geometry" />
        </mxCell>
        <mxCell id="eeCppcq6T9XGfD-gnMKO-5" value="Felhasználó" style="rounded=1;whiteSpace=wrap;html=1;" parent="1" vertex="1">
          <mxGeometry x="354" y="110" width="120" height="40" as="geometry" />
        </mxCell>
        <mxCell id="eeCppcq6T9XGfD-gnMKO-6" value="Vizsgaterem" style="rounded=1;whiteSpace=wrap;html=1;" parent="1" vertex="1">
          <mxGeometry x="150" y="430" width="120" height="40" as="geometry" />
        </mxCell>
        <mxCell id="eeCppcq6T9XGfD-gnMKO-7" value="Tanterem" style="rounded=1;whiteSpace=wrap;html=1;" parent="1" vertex="1">
          <mxGeometry x="550" y="430" width="120" height="40" as="geometry" />
        </mxCell>
        <mxCell id="eeCppcq6T9XGfD-gnMKO-8" value="Számonkérés" style="rounded=1;whiteSpace=wrap;html=1;" parent="1" vertex="1">
          <mxGeometry x="140" y="180" width="120" height="40" as="geometry" />
        </mxCell>
        <mxCell id="eeCppcq6T9XGfD-gnMKO-13" value="&lt;div&gt;Oktatás&lt;/div&gt;" style="rounded=1;whiteSpace=wrap;html=1;" parent="1" vertex="1">
          <mxGeometry x="570" y="180" width="120" height="40" as="geometry" />
        </mxCell>
        <mxCell id="eeCppcq6T9XGfD-gnMKO-34" value="" style="edgeStyle=entityRelationEdgeStyle;fontSize=12;html=1;endArrow=ERmany;rounded=0;" parent="1" source="eeCppcq6T9XGfD-gnMKO-3" target="eeCppcq6T9XGfD-gnMKO-7" edge="1">
          <mxGeometry width="100" height="100" relative="1" as="geometry">
            <mxPoint x="360" y="310" as="sourcePoint" />
            <mxPoint x="460" y="210" as="targetPoint" />
          </mxGeometry>
        </mxCell>
        <mxCell id="eeCppcq6T9XGfD-gnMKO-37" value="" style="edgeStyle=entityRelationEdgeStyle;fontSize=12;html=1;endArrow=ERmany;rounded=0;" parent="1" source="eeCppcq6T9XGfD-gnMKO-3" target="eeCppcq6T9XGfD-gnMKO-6" edge="1">
          <mxGeometry width="100" height="100" relative="1" as="geometry">
            <mxPoint x="484" y="460" as="sourcePoint" />
            <mxPoint x="324" y="480" as="targetPoint" />
          </mxGeometry>
        </mxCell>
        <mxCell id="eeCppcq6T9XGfD-gnMKO-39" value="" style="fontSize=12;html=1;endArrow=ERmany;rounded=0;" parent="1" source="eeCppcq6T9XGfD-gnMKO-4" target="eeCppcq6T9XGfD-gnMKO-6" edge="1">
          <mxGeometry width="100" height="100" relative="1" as="geometry">
            <mxPoint x="530" y="460" as="sourcePoint" />
            <mxPoint x="620" y="370" as="targetPoint" />
            <Array as="points">
              <mxPoint x="210" y="360" />
            </Array>
          </mxGeometry>
        </mxCell>
        <mxCell id="eeCppcq6T9XGfD-gnMKO-40" value="" style="fontSize=12;html=1;endArrow=ERmany;rounded=0;" parent="1" source="eeCppcq6T9XGfD-gnMKO-2" target="eeCppcq6T9XGfD-gnMKO-7" edge="1">
          <mxGeometry width="100" height="100" relative="1" as="geometry">
            <mxPoint x="540" y="360" as="sourcePoint" />
            <mxPoint x="510" y="430" as="targetPoint" />
            <Array as="points">
              <mxPoint x="610" y="360" />
            </Array>
          </mxGeometry>
        </mxCell>
        <mxCell id="eeCppcq6T9XGfD-gnMKO-64" value="FE-SZ" style="text;html=1;align=center;verticalAlign=middle;whiteSpace=wrap;rounded=0;rotation=-20;" parent="1" vertex="1">
          <mxGeometry x="270" y="140" width="60" height="30" as="geometry" />
        </mxCell>
        <mxCell id="eeCppcq6T9XGfD-gnMKO-65" value="FE-OK" style="text;html=1;align=center;verticalAlign=middle;whiteSpace=wrap;rounded=0;rotation=15;" parent="1" vertex="1">
          <mxGeometry x="500" y="140" width="60" height="30" as="geometry" />
        </mxCell>
        <mxCell id="eeCppcq6T9XGfD-gnMKO-71" value="OK-KU" style="text;html=1;align=center;verticalAlign=middle;whiteSpace=wrap;rounded=0;rotation=0;" parent="1" vertex="1">
          <mxGeometry x="560" y="230" width="60" height="30" as="geometry" />
        </mxCell>
        <mxCell id="eeCppcq6T9XGfD-gnMKO-73" value="&lt;div&gt;SZ-VI&lt;/div&gt;" style="text;html=1;align=center;verticalAlign=middle;whiteSpace=wrap;rounded=0;rotation=0;" parent="1" vertex="1">
          <mxGeometry x="210" y="230" width="60" height="30" as="geometry" />
        </mxCell>
        <mxCell id="eeCppcq6T9XGfD-gnMKO-75" value="KU-TA" style="text;html=1;align=center;verticalAlign=middle;whiteSpace=wrap;rounded=0;rotation=0;" parent="1" vertex="1">
          <mxGeometry x="600" y="370" width="60" height="30" as="geometry" />
        </mxCell>
        <mxCell id="eeCppcq6T9XGfD-gnMKO-76" value="VI-VI" style="text;html=1;align=center;verticalAlign=middle;whiteSpace=wrap;rounded=0;rotation=0;" parent="1" vertex="1">
          <mxGeometry x="160" y="370" width="60" height="30" as="geometry" />
        </mxCell>
        <mxCell id="eeCppcq6T9XGfD-gnMKO-77" value="TE-TA" style="text;html=1;align=center;verticalAlign=middle;whiteSpace=wrap;rounded=0;rotation=0;" parent="1" vertex="1">
          <mxGeometry x="460" y="420" width="60" height="30" as="geometry" />
        </mxCell>
        <mxCell id="eeCppcq6T9XGfD-gnMKO-78" value="VI-TE" style="text;html=1;align=center;verticalAlign=middle;whiteSpace=wrap;rounded=0;rotation=0;" parent="1" vertex="1">
          <mxGeometry x="300" y="420" width="60" height="30" as="geometry" />
        </mxCell>
        <mxCell id="MzAdrM5x4kMa00FNJOqt-2" value="" style="fontSize=12;html=1;endArrow=ERmany;rounded=0;entryX=1;entryY=1;entryDx=0;entryDy=0;exitX=0;exitY=0;exitDx=0;exitDy=0;" edge="1" parent="1" source="eeCppcq6T9XGfD-gnMKO-13" target="eeCppcq6T9XGfD-gnMKO-5">
          <mxGeometry width="100" height="100" relative="1" as="geometry">
            <mxPoint x="484" y="460" as="sourcePoint" />
            <mxPoint x="560" y="460" as="targetPoint" />
          </mxGeometry>
        </mxCell>
        <mxCell id="MzAdrM5x4kMa00FNJOqt-3" value="" style="fontSize=12;html=1;endArrow=ERmany;rounded=0;exitX=1;exitY=0;exitDx=0;exitDy=0;entryX=0;entryY=1;entryDx=0;entryDy=0;" edge="1" parent="1" source="eeCppcq6T9XGfD-gnMKO-8" target="eeCppcq6T9XGfD-gnMKO-5">
          <mxGeometry width="100" height="100" relative="1" as="geometry">
            <mxPoint x="484" y="460" as="sourcePoint" />
            <mxPoint x="560" y="460" as="targetPoint" />
          </mxGeometry>
        </mxCell>
        <mxCell id="MzAdrM5x4kMa00FNJOqt-4" value="" style="fontSize=12;html=1;endArrow=ERmany;rounded=0;exitX=0;exitY=1;exitDx=0;exitDy=0;entryX=1;entryY=0;entryDx=0;entryDy=0;" edge="1" parent="1" source="eeCppcq6T9XGfD-gnMKO-13" target="eeCppcq6T9XGfD-gnMKO-2">
          <mxGeometry width="100" height="100" relative="1" as="geometry">
            <mxPoint x="494" y="470" as="sourcePoint" />
            <mxPoint x="470" y="290" as="targetPoint" />
          </mxGeometry>
        </mxCell>
        <mxCell id="MzAdrM5x4kMa00FNJOqt-6" value="" style="fontSize=12;html=1;endArrow=ERmany;rounded=0;exitX=1;exitY=1;exitDx=0;exitDy=0;entryX=0;entryY=0;entryDx=0;entryDy=0;strokeColor=default;entryPerimeter=0;" edge="1" parent="1" source="eeCppcq6T9XGfD-gnMKO-8" target="eeCppcq6T9XGfD-gnMKO-4">
          <mxGeometry width="100" height="100" relative="1" as="geometry">
            <mxPoint x="504" y="480" as="sourcePoint" />
            <mxPoint x="310" y="338" as="targetPoint" />
          </mxGeometry>
        </mxCell>
      </root>
    </mxGraphModel>
  </diagram>
</mxfile>
